<?xml version="1.0" standalone="no"?>
<!DOCTYPE svg PUBLIC "-//W3C//DTD SVG 20010904//EN"
 "http://www.w3.org/TR/2001/REC-SVG-20010904/DTD/svg10.dtd">
<svg version="1.0" xmlns="http://www.w3.org/2000/svg"
 width="750.000000pt" height="1334.000000pt" viewBox="0 0 750.000000 1334.000000"
 preserveAspectRatio="xMidYMid meet">

<g transform="translate(0.000000,1334.000000) scale(0.100000,-0.100000)"
fill="#000000" stroke="none">
<path d="M6968 9508 c-36 -40 -84 -100 -107 -133 -77 -111 -396 -442 -476
-494 -118 -76 -199 -114 -316 -146 -179 -50 -221 -55 -473 -57 -217 -1 -286 2
-491 17 -33 3 -109 7 -170 10 -60 4 -116 8 -124 11 -8 3 -117 7 -242 11 -461
11 -768 -46 -1056 -198 -97 -52 -225 -136 -236 -155 -4 -8 -13 -14 -20 -14
-25 0 -203 -169 -310 -295 -66 -78 -163 -210 -189 -256 -9 -17 -23 -38 -32
-48 -9 -10 -16 -20 -16 -23 0 -3 -17 -35 -38 -69 -54 -90 -138 -249 -147 -279
-4 -14 -13 -32 -21 -41 -22 -25 -160 -354 -191 -454 -8 -27 -19 -54 -24 -59
-5 -6 -9 -19 -9 -30 0 -12 -8 -39 -19 -61 -22 -46 -31 -73 -73 -205 -28 -89
-40 -132 -103 -350 -14 -47 -28 -105 -31 -130 -6 -42 -5 -44 10 -25 8 11 27
58 42 105 14 47 32 99 39 115 8 17 39 88 70 160 30 71 71 152 90 180 208 304
283 385 425 463 163 89 310 113 605 97 59 -3 232 -21 290 -31 17 -2 72 -9 123
-14 52 -5 110 -14 130 -19 78 -21 384 -43 599 -43 122 0 225 2 230 5 5 3 36 9
68 12 161 18 370 74 505 136 120 56 213 104 238 126 15 12 31 23 36 23 9 0 83
47 96 60 3 3 18 13 33 23 58 37 244 205 252 227 3 8 18 22 34 31 32 19 241
274 241 295 0 8 4 14 9 14 11 0 49 52 117 160 26 41 62 98 81 127 18 28 33 54
33 57 0 3 14 29 31 58 41 69 162 303 179 348 8 19 20 41 27 48 7 7 13 20 13
29 0 8 8 27 19 41 10 15 29 52 41 82 23 57 174 393 241 539 22 46 38 86 35 88
-2 2 -33 -29 -68 -69z m-393 -650 c-10 -34 -161 -335 -185 -368 -11 -15 -20
-31 -20 -34 0 -4 -8 -19 -19 -34 -38 -55 -90 -138 -114 -183 -13 -26 -34 -58
-47 -70 -12 -13 -29 -35 -39 -49 -23 -36 -98 -136 -156 -209 -106 -133 -399
-403 -498 -460 -23 -13 -53 -31 -67 -41 -104 -74 -350 -169 -525 -205 -208
-41 -599 -46 -865 -10 -14 2 -63 8 -110 15 -47 6 -128 15 -180 20 -52 5 -126
14 -165 20 -467 66 -801 5 -1034 -191 -39 -33 -71 -58 -71 -56 0 2 11 27 25
55 14 29 25 56 25 62 0 6 4 18 9 28 4 9 15 33 24 52 42 95 155 317 195 383 30
52 133 203 202 299 135 186 355 387 555 505 66 39 260 123 283 123 7 0 34 8
60 19 48 19 197 46 352 64 171 19 475 14 754 -13 413 -41 875 -32 1035 20 36
11 79 23 95 26 60 10 148 44 224 85 95 51 202 121 226 148 25 27 39 27 31 -1z"/>
<path d="M5958 7603 c-36 -43 -76 -96 -91 -117 -14 -22 -101 -117 -192 -212
-130 -136 -182 -183 -243 -219 -42 -26 -84 -51 -92 -56 -28 -17 -65 -31 -146
-55 -165 -48 -215 -54 -443 -54 -215 1 -259 3 -421 14 -290 21 -360 26 -495
31 -271 12 -580 -34 -770 -114 -123 -51 -193 -91 -372 -212 -52 -35 -218 -198
-279 -274 -62 -76 -126 -164 -150 -206 -6 -10 -18 -27 -27 -36 -8 -10 -20 -29
-26 -43 -6 -14 -23 -43 -36 -65 -36 -57 -196 -383 -243 -495 -22 -52 -52 -133
-67 -180 -15 -47 -36 -101 -46 -121 -11 -20 -19 -44 -19 -53 0 -8 -6 -30 -14
-48 -8 -18 -33 -96 -56 -173 -22 -77 -50 -170 -61 -207 -11 -37 -24 -90 -28
-119 -8 -47 -7 -51 6 -33 7 10 21 44 30 74 21 75 139 355 168 399 26 40 120
172 177 248 52 69 144 146 230 192 68 37 102 49 203 71 51 11 352 6 475 -9 52
-6 133 -15 180 -21 47 -5 121 -16 165 -24 182 -33 589 -47 735 -25 121 18 290
56 365 82 94 32 261 111 301 142 18 14 43 29 56 34 44 17 184 128 297 237 142
136 347 393 416 519 15 28 33 57 40 65 26 32 255 473 255 492 0 6 6 19 14 27
8 9 24 41 36 71 12 30 37 87 55 125 18 39 61 132 94 208 34 77 71 157 82 178
31 61 7 46 -63 -38z m-349 -600 c-17 -38 -34 -75 -39 -83 -5 -8 -27 -51 -50
-95 -45 -88 -63 -118 -126 -215 -23 -36 -50 -81 -61 -100 -18 -33 -112 -163
-213 -294 -70 -90 -272 -283 -384 -367 -71 -52 -167 -110 -225 -136 -31 -14
-69 -31 -86 -38 -55 -24 -149 -58 -185 -65 -19 -4 -71 -16 -115 -26 -113 -26
-581 -26 -765 0 -69 9 -163 21 -210 26 -47 5 -146 16 -220 25 -257 32 -503 10
-665 -58 -55 -23 -160 -89 -216 -137 l-37 -30 35 82 c19 46 39 94 45 108 6 14
15 34 21 45 6 11 36 70 67 130 30 61 64 124 75 140 77 122 132 203 175 260 27
36 50 70 50 74 0 15 245 247 311 294 64 45 254 157 267 157 4 0 29 9 57 19
123 48 198 64 435 97 84 11 160 14 283 10 163 -6 540 -31 602 -41 127 -20 537
-5 645 24 257 69 376 122 498 225 24 20 48 36 52 36 5 0 -5 -30 -21 -67z"/>
<path d="M5004 5858 c-33 -40 -78 -98 -100 -128 -23 -30 -104 -118 -181 -195
-119 -119 -152 -146 -223 -184 -85 -44 -110 -53 -253 -91 -103 -27 -400 -30
-722 -7 -466 34 -592 32 -818 -9 -188 -34 -381 -121 -552 -248 -60 -45 -245
-233 -291 -296 -57 -78 -126 -180 -149 -220 -86 -153 -125 -227 -125 -239 0
-8 -6 -22 -14 -30 -17 -19 -98 -205 -136 -314 -15 -43 -31 -81 -34 -84 -3 -4
-6 -14 -6 -24 0 -9 -7 -30 -15 -46 -24 -46 -146 -451 -160 -533 -6 -35 -6 -35
9 -10 8 14 23 53 35 86 48 144 130 314 195 405 136 192 184 241 297 302 164
90 350 92 940 12 253 -34 558 -34 724 0 157 32 383 121 462 181 17 13 36 24
41 24 4 0 46 28 93 62 101 73 307 277 373 368 49 69 59 82 107 145 17 22 42
60 56 85 13 25 46 83 74 130 62 107 220 426 292 590 30 69 78 173 105 233 28
59 47 107 43 107 -5 0 -35 -33 -67 -72z m-287 -480 c-32 -82 -48 -115 -85
-183 -25 -44 -52 -94 -61 -111 -42 -79 -134 -216 -221 -331 -52 -69 -102 -135
-110 -147 -20 -28 -97 -102 -191 -185 -111 -97 -131 -113 -153 -125 -12 -7
-46 -28 -76 -47 -55 -35 -95 -53 -200 -91 -30 -11 -64 -23 -75 -28 -27 -12
-150 -36 -257 -51 -114 -16 -399 -6 -583 19 -77 11 -176 23 -220 27 -44 3
-107 11 -140 16 -32 6 -118 11 -190 11 -236 1 -386 -42 -529 -152 -36 -28 -66
-49 -66 -47 0 11 80 191 126 282 152 303 341 542 552 699 101 75 265 160 342
176 19 5 49 13 65 19 54 19 217 42 349 49 130 7 456 -7 627 -28 106 -12 384
-13 503 0 48 5 120 18 160 30 39 11 94 27 123 36 63 18 204 94 258 140 42 35
61 43 52 22z"/>
</g>
</svg>
